# xmcd
#
# Track frame offsets: 
#        150
#        12322
#        24068
#        36410
#        48925
#        60493
#        73743
#        86644
#        99688
#        112347
#        121744
#        132416
#        144786
#        155347
#        163106
#        174405
#        185856
#        199482
#        211277
#        223484
#        235863
#        248972
#        260595
#        273168
#        285145
#        297631
#        310914
#        323596
#
# Disc length: 4461 seconds
#
# Revision: 0
# Processed by: cddbd v1.5.2PL0 Copyright (c) Steve Scherf et al.
# Submitted via: ExactAudioCopy v1.3
#
DISCID=a8116b1c
DTITLE=Big Mama Thornton - The Story Of My Blues: The Complete Singles
DTITLE=As and Bs 1951-1961
DYEAR=2019
DGENRE=Blues
TTITLE0=Partnership Blues
TTITLE1=I'm All Fed Up
TTITLE2=No Jody For Me
TTITLE3=Let Your Tears Fall, Baby
TTITLE4=Mischievous Boogie
TTITLE5=Every Time I Think Of You
TTITLE6=Hound Dog
TTITLE7=Night Mare
TTITLE8=Cotton Picking Blues
TTITLE9=They Call Me Big Mama
TTITLE10=I Ain't No Fool Either
TTITLE11=The Big Change
TTITLE12=I've Searched The Whole World Over
TTITLE13=I Smell A Rat
TTITLE14=Stop A Hoppin' On Me
TTITLE15=Story Of My Blues
TTITLE16=Walking Blues
TTITLE17=Rock A Bye Baby
TTITLE18=The Fish
TTITLE19=Laugh, Laugh, Laugh
TTITLE20=Tarzan And The Dignified Monkey
TTITLE21=How Come
TTITLE22=Just Like A Dog (Barking Up The Wrong Tree)
TTITLE23=My Man Called Me
TTITLE24=You Did Me Wrong
TTITLE25=Big Mama's Blues
TTITLE26=Don't Talk Back
TTITLE27=Big Mama's Coming Home
EXTD=
EXTT0=
EXTT1=
EXTT2=
EXTT3=
EXTT4=
EXTT5=
EXTT6=
EXTT7=
EXTT8=
EXTT9=
EXTT10=
EXTT11=
EXTT12=
EXTT13=
EXTT14=
EXTT15=
EXTT16=
EXTT17=
EXTT18=
EXTT19=
EXTT20=
EXTT21=
EXTT22=
EXTT23=
EXTT24=
EXTT25=
EXTT26=
EXTT27=
PLAYORDER=
